<svg xmlns="http://www.w3.org/2000/svg" width="1200" height="330" viewBox="0 0 1200 330">
  <rect width="1200" height="330" rx="18"
        fill="#0b1423"
        stroke="#17243a"/>

  <g font-family="Arial, sans-serif">

    <text x="55" y="50"
          fill="#738198"
          font-size="12"
          letter-spacing="4">
      LANGUAGE TELEMETRY
    </text>

    <text x="700" y="50"
          fill="#738198"
          font-size="12"
          letter-spacing="4">
      FOCUS SECTORS
    </text>

    <g font-size="13" fill="#a9b5c7">
      <text x="55" y="90">Python</text>
      <text x="55" y="125">HTML5</text>
      <text x="55" y="160">CSS3</text>
      <text x="55" y="195">Github Actions</text>
      <text x="55" y="230">Git</text>
      <text x="55" y="265">Docker</text>
    </g>

    <g>
      <rect x="160" y="78" width="150" height="14" rx="4" fill="#3d86bd"/>
      <rect x="160" y="113" width="120" height="14" rx="4" fill="#4b83bd"/>
      <rect x="160" y="148" width="55" height="14" rx="4" fill="#d8bd46"/>
      <rect x="160" y="183" width="45" height="14" rx="4" fill="#28a9bd"/>
      <rect x="160" y="218" width="18" height="14" rx="4" fill="#b9826d"/>
      <rect x="160" y="253" width="8" height="14" rx="4" fill="#566273"/>
    </g>

    <g font-size="12" fill="#738198">
      <text x="335" y="90">40.7%</text>
      <text x="335" y="125">34.4%</text>
      <text x="335" y="160">10.9%</text>
      <text x="335" y="195">8.6%</text>
      <text x="335" y="230">4.1%</text>
      <text x="335" y="265">1.4%</text>
    </g>

    <g transform="translate(900 165)">
      <circle r="85"
              fill="#121d2d"
              stroke="#26354c"/>

      <path d="M0 0L0-85A85 85 0 0 1 78 35Z"
            fill="#5b55a3"
            opacity=".65"/>

      <path d="M0 0L78 35A85 85 0 0 1 -35 78Z"
            fill="#168da5"
            opacity=".65"/>

      <path d="M0 0L-35 78A85 85 0 0 1 -78-35Z"
            fill="#8c6c31"
            opacity=".65"/>

      <path d="M0 0L-78-35A85 85 0 0 1 0-85Z"
            fill="#3a345f"
            opacity=".65"/>

      <text x="115" y="-55"
            fill="#8c83d2"
            font-size="12">
        Frontend
      </text>

      <text x="75" y="75"
            fill="#34b8c9"
            font-size="12">
        Backend
      </text>

      <text x="-125" y="-5"
            fill="#d0a23c"
            font-size="12">
        DevOps
      </text>
    </g>

  </g>
</svg>